<svg width="50" height="54" viewBox="0 0 50 54" fill="none" xmlns="http://www.w3.org/2000/svg">
<path fill-rule="evenodd" clip-rule="evenodd" d="M16.4911 50.3926C11.7848 49.0719 6.85748 48.4057 2.07764 47.7954C1.04814 47.6674 0.0923131 48.3814 0.0187771 49.3874C-0.128295 50.3941 0.607496 51.3148 1.56346 51.4427C6.19623 52.0303 10.9756 52.659 15.4613 53.9304C16.4173 54.2062 17.4472 53.6385 17.7414 52.662C18.0355 51.6861 17.4471 50.6691 16.4911 50.3926Z" fill="white" fill-opacity="0.21"/>
<path fill-rule="evenodd" clip-rule="evenodd" d="M30.7563 31.6681C23.1821 23.9388 14.6519 17.2043 7.22479 9.2676C6.56297 8.52636 5.38639 8.48665 4.65103 9.17862C3.91567 9.87133 3.84242 11.0361 4.57778 11.7774C12.0049 19.7369 20.5351 26.4934 28.1093 34.2456C28.8447 34.9692 30.0209 34.9794 30.7563 34.2676C31.4181 33.5565 31.4917 32.3917 30.7563 31.6681Z" fill="white" fill-opacity="0.21"/>
<path fill-rule="evenodd" clip-rule="evenodd" d="M44.95 1.93823C45.1706 6.36215 45.3907 10.7861 45.6114 15.2107C45.6114 16.2241 46.4942 17.0065 47.5237 16.9572C48.5532 16.9072 49.2882 16.0446 49.2882 15.0306C49.0675 10.5993 48.8474 6.16875 48.6268 1.73821C48.5532 0.724886 47.6707 -0.0523894 46.6411 0.00276262C45.6852 0.0579146 44.8764 0.925642 44.95 1.93823Z" fill="white" fill-opacity="0.21"/>
</svg>
