<svg width="29" height="29" viewBox="0 0 29 29" fill="none" xmlns="http://www.w3.org/2000/svg">
<path fill-rule="evenodd" clip-rule="evenodd" d="M11.4871 5.71494C11.4094 5.25405 11.3509 4.79838 11.3131 4.34267C11.2561 3.6591 11.2914 2.9703 11.2712 2.28673C11.2624 1.99673 11.2277 1.24067 11.2416 1.13192C11.3685 0.184238 12.1334 0.0392204 12.3571 0.0133275C12.4653 -0.00220817 13.5767 -0.126438 13.8164 1.10606C14.1106 2.61303 14.2048 4.13033 14.1007 5.61658C14.3436 6.88015 14.7589 8.13851 15.3073 9.2778C17.4896 13.809 21.648 14.2492 26.1533 14.2078C26.8462 14.1975 27.4216 14.7412 27.4578 15.4299C27.4941 16.1239 26.9783 16.7246 26.2885 16.7867C23.7702 17.0301 19.3021 19.0498 17.7573 21.1523C17.4342 21.5925 17.2462 22.6541 16.9976 23.695C16.6507 25.1398 16.2379 26.5691 15.7755 27.1698C15.7061 27.263 14.8625 28.2159 14.6108 28.3557C14.006 28.6871 13.5218 28.4955 13.2468 28.3194C12.9718 28.1433 12.6606 27.7964 12.5363 27.2216C12.4063 26.6208 12.5161 25.3883 12.4959 25.1242C12.4224 24.1662 12.2308 22.2864 11.8398 20.6707C11.629 19.8007 11.4043 18.998 11.0324 18.5992C9.65597 17.1233 7.45508 17.3409 5.60167 17.5842C5.38883 17.6101 5.17599 17.6412 4.96367 17.6671C4.20915 17.8898 3.40801 18.0555 2.56131 18.1539C1.28272 18.3041 1.07249 17.1285 1.06109 17.0508C1.03727 16.8799 0.948709 15.9996 1.91244 15.6475C2.01757 15.6112 2.79332 15.4403 3.09213 15.373C3.50848 15.2798 3.92949 15.2073 4.35207 15.14C8.71708 13.7832 11.0878 9.97173 11.4871 5.71494ZM12.9853 10.4223C14.6331 13.8298 17.1338 15.4766 20.098 16.2223H20.0975C18.2467 17.1907 16.5631 18.4025 15.6709 19.6195C15.3322 20.0803 15.0215 21.0073 14.7413 22.0482C14.5896 21.0798 14.3845 20.0492 14.1137 19.1689C13.8056 18.1642 13.3907 17.3305 12.9278 16.8334C12.034 15.8753 10.9123 15.3419 9.70619 15.0778C11.15 13.7987 12.2447 12.2037 12.9853 10.4223Z" fill="white" fill-opacity="0.2"/>
</svg>
